<svg xmlns="http://www.w3.org/2000/svg" xmlns:xlink="http://www.w3.org/1999/xlink" width="1200" zoomAndPan="magnify" viewBox="0 0 900 225" height="300" preserveAspectRatio="xMidYMid meet" version="1.0"><defs><g/></defs><g fill="#ff6100" fill-opacity="1"><g transform="translate(121.634437, 184.728004)"><g><path d="M 90.09375 -140.15625 C 105.175781 -140.15625 116.625 -136.25 124.4375 -128.4375 C 132.25 -120.632812 136.15625 -109.191406 136.15625 -94.109375 L 136.15625 -46.046875 C 136.15625 -30.960938 132.25 -19.515625 124.4375 -11.703125 C 116.625 -3.898438 105.175781 0 90.09375 0 L 12.015625 0 L 12.015625 -140.15625 Z M 100.109375 -94.109375 C 100.109375 -106.117188 94.101562 -112.125 82.09375 -112.125 L 48.046875 -112.125 L 48.046875 -28.03125 L 82.09375 -28.03125 C 94.101562 -28.03125 100.109375 -34.035156 100.109375 -46.046875 Z M 100.109375 -94.109375 "/></g></g></g><g fill="#ff6100" fill-opacity="1"><g transform="translate(305.836581, 184.728004)"><g><path d="M 12.015625 -140.15625 L 96.109375 -140.15625 C 110.117188 -140.15625 120.296875 -136.984375 126.640625 -130.640625 C 132.984375 -124.296875 136.15625 -114.117188 136.15625 -100.109375 L 136.15625 -80.09375 C 136.15625 -66.070312 132.984375 -55.890625 126.640625 -49.546875 C 120.296875 -43.210938 110.117188 -40.046875 96.109375 -40.046875 L 48.046875 -40.046875 L 48.046875 0 L 12.015625 0 Z M 100.109375 -100.109375 C 100.109375 -108.117188 96.101562 -112.125 88.09375 -112.125 L 48.046875 -112.125 L 48.046875 -68.078125 L 88.09375 -68.078125 C 96.101562 -68.078125 100.109375 -72.082031 100.109375 -80.09375 Z M 100.109375 -100.109375 "/></g></g></g><g fill="#ff6100" fill-opacity="1"><g transform="translate(488.036541, 184.728004)"><g><path d="M 37.046875 0 L -2 0 L 51.0625 -140.15625 L 91.09375 -140.15625 L 144.15625 0 L 105.109375 0 L 96.109375 -25.03125 L 46.046875 -25.03125 Z M 55.0625 -51.0625 L 87.09375 -51.0625 L 71.078125 -98.109375 Z M 55.0625 -51.0625 "/></g></g></g><g fill="#ff6100" fill-opacity="1"><g transform="translate(670.236524, 184.728004)"><g><path d="M 68.078125 -84.09375 L 102.109375 -84.09375 L 102.109375 -56.0625 L 68.078125 -56.0625 L 68.078125 -22.03125 L 40.046875 -22.03125 L 40.046875 -56.0625 L 6 -56.0625 L 6 -84.09375 L 40.046875 -84.09375 L 40.046875 -118.125 L 68.078125 -118.125 Z M 68.078125 -84.09375 "/></g></g></g></svg>